<svg xmlns="http://www.w3.org/2000/svg" width="1920" height="1080" viewBox="0 0 1920 1080">
  <defs><linearGradient id="bg" x1="0" y1="0" x2="1" y2="1"><stop stop-color="#071019"/><stop offset="1" stop-color="#10263a"/></linearGradient><linearGradient id="card" x1="0" y1="0" x2="1" y2="1"><stop stop-color="#173756"/><stop offset="1" stop-color="#10261f"/></linearGradient><marker id="arrow" markerWidth="12" markerHeight="12" refX="8" refY="5" orient="auto"><path d="M0 0 L10 5 L0 10Z" fill="#78e5bd"/></marker></defs>
  <rect width="1920" height="1080" fill="url(#bg)"/><circle cx="1750" cy="80" r="270" fill="#18335a" opacity=".3"/><circle cx="150" cy="1020" r="260" fill="#12352f" opacity=".25"/>
  <text x="100" y="88" font-family="Arial,Helvetica,sans-serif" font-size="25px" font-weight="800" letter-spacing="5" fill="#78e5bd">REBECCA AI EXPLAINER · 01</text>
  <text x="100" y="168" font-family="Arial,Helvetica,sans-serif" font-size="60px" font-weight="850" fill="#f7fafc">Deep Learning</text>
  <text x="1820" y="88" text-anchor="end" font-family="Arial" font-size="22px" font-weight="700" fill="#c2cfdd">02 / 06</text>
  <g><rect x="570" y="360" width="210" height="250" rx="28" fill="#102032" stroke="#38516d" stroke-width="4"/><text x="675" y="465" text-anchor="middle" font-family="Arial" font-size="26px" font-weight="800" fill="#f7fafc">pixels</text><circle cx="642" cy="525" r="12" fill="#7fb1ff"/><circle cx="675" cy="550" r="12" fill="#78e5bd"/><circle cx="708" cy="525" r="12" fill="#7fb1ff"/></g><g><rect x="820" y="328" width="210" height="250" rx="28" fill="#173b4a" stroke="#78e5bd" stroke-width="4"/><text x="925" y="433" text-anchor="middle" font-family="Arial" font-size="26px" font-weight="800" fill="#f7fafc">edges</text><circle cx="892" cy="493" r="12" fill="#7fb1ff"/><circle cx="925" cy="518" r="12" fill="#78e5bd"/><circle cx="958" cy="493" r="12" fill="#7fb1ff"/></g><g><rect x="1070" y="296" width="210" height="250" rx="28" fill="#102032" stroke="#38516d" stroke-width="4"/><text x="1175" y="401" text-anchor="middle" font-family="Arial" font-size="26px" font-weight="800" fill="#f7fafc">signals</text><circle cx="1142" cy="461" r="12" fill="#7fb1ff"/><circle cx="1175" cy="486" r="12" fill="#78e5bd"/><circle cx="1208" cy="461" r="12" fill="#7fb1ff"/></g>
  <rect x="76" y="884" width="1768" height="146" rx="22" fill="#07111a" stroke="#38516d" stroke-width="3"/>
  <text x="112" y="928" font-family="Arial" font-size="21px" font-weight="800" letter-spacing="2" fill="#7fb1ff">FIRST LAYER</text><text x="112" y="972" text-anchor="start" font-family="Arial,Helvetica,sans-serif" font-size="25px" font-weight="600" fill="#f7fafc">Early layers notice simple signals, like edges,</text><text x="112" y="1007" text-anchor="start" font-family="Arial,Helvetica,sans-serif" font-size="25px" font-weight="600" fill="#f7fafc">colors, or short sounds.</text>
  </svg>